<?xml version="1.0" encoding="UTF-8" standalone="no"?>
<!DOCTYPE svg PUBLIC "-//W3C//DTD SVG 1.1//EN" "http://www.w3.org/Graphics/SVG/1.1/DTD/svg11.dtd">
<svg width="100%" height="100%" viewBox="0 0 5500 1000" version="1.1" xmlns="http://www.w3.org/2000/svg" xmlns:xlink="http://www.w3.org/1999/xlink" xml:space="preserve" xmlns:serif="http://www.serif.com/" style="fill-rule:evenodd;clip-rule:evenodd;stroke-linejoin:round;stroke-miterlimit:2;">
    <g id="Image">
        <g transform="matrix(1.18117,0,0,1.18117,-454.327,-127.035)">
            <circle cx="892.5" cy="515.5" r="366.5" style="fill:white;"/>
        </g>
        <g transform="matrix(1.18117,0,0,1.18117,-102.339,33.6037)">
            <path id="path5" d="M556.558,688.163C515.006,681.602 488.636,673.267 453.59,655.618C431.95,644.72 389.225,614.879 389.225,610.663C389.225,610.147 395.675,607.461 403.558,604.695C417.299,599.874 451.009,587.141 479.225,576.115C551.55,547.85 615.036,517.892 704.307,469.901C712.969,465.244 720.611,461.434 721.288,461.434C721.965,461.434 721.371,464.346 719.968,467.906C708.917,495.944 718.366,527.734 742.551,543.884C767.661,560.652 798.878,557.315 820.658,535.534C840.125,516.067 844.63,488 832.336,462.782C829.651,457.274 827.602,452.167 827.784,451.434C827.965,450.701 827.668,450.547 827.122,451.092C826.577,451.637 822.945,449.07 819.051,445.388C811.529,438.274 798.473,431.26 790.249,429.915C787.512,429.467 785.531,428.684 785.845,428.175C786.16,427.666 784.649,427.509 782.488,427.827C780.326,428.144 778.558,428.097 778.558,427.723C778.558,427.349 783.208,424.192 788.891,420.706C811.277,406.978 846.902,383.526 861.891,372.65C868.491,367.861 880.105,359.442 887.7,353.941C895.294,348.44 901.894,344.328 902.366,344.802C902.839,345.277 903.163,360.163 903.088,377.883C902.942,412.373 902.051,420.068 894.551,451.604C888.966,475.083 882.199,494.252 872.016,515.434C861.134,538.069 856.499,545.626 839.044,569.19C819.047,596.186 795.598,618.581 763.775,641.076C731.636,663.795 685.674,681.506 643.058,687.594C635.083,688.733 615.958,689.896 600.558,690.177C577.734,690.595 569.601,690.222 556.558,688.163Z" style="fill:rgb(133,89,233);fill-rule:nonzero;"/>
            <path id="path51" serif:id="path5" d="M281.589,371.912C282.899,319.323 293.17,278.6 317.153,230.912C326.785,211.759 348.344,179.551 349.437,182.68C350.144,184.701 364.022,187.862 379.668,189.564C404.915,192.312 437.722,188.766 461.319,180.74C466.738,178.897 472.065,177.732 473.158,178.151C474.25,178.57 474.73,178.499 474.224,177.994C473.718,177.488 478.941,174.536 485.83,171.433C508.732,161.119 530.296,145.735 548.15,126.973C563.399,110.949 578.69,87.403 584.451,71.076L586.44,65.439L581.61,65.439C578.954,65.439 577.102,65.118 577.494,64.725C578.369,63.851 616.552,66.34 631.225,68.228C668.427,73.015 704.291,84.579 735.629,101.892C751.284,110.541 751.737,110.809 756.792,114.439C759.09,116.089 761.373,117.439 761.865,117.439C764.486,117.439 797.474,145.091 797.474,145.091L779.966,156.932C684.667,221.381 601.027,268.518 499.225,315.152C443.651,340.609 383.78,365.018 381.05,363.331C380.161,362.782 379.832,362.931 380.292,363.675C381.383,365.441 316.585,388.643 284.069,398.13L280.913,399.051L281.589,371.912Z" style="fill:rgb(133,89,233);fill-rule:nonzero;"/>
            <path id="path52" serif:id="path5" d="M383.366,149.676L378.174,148.772L384.033,143.414C400.248,128.582 432.799,106.309 453.156,96.117C476.796,84.28 499.186,76.758 526.558,71.458C532.791,70.251 539.004,68.943 540.364,68.551C542.705,67.876 542.695,68.04 540.187,71.638C538.731,73.729 534.665,79.824 531.153,85.183C524.572,95.223 508.831,111.039 495.943,120.56C480.169,132.213 457.787,141.495 432.558,146.848C419.737,149.568 391.931,151.167 383.366,149.676Z" style="fill:rgb(133,89,233);fill-rule:nonzero;"/>
            <path id="path53" serif:id="path5" d="M316.223,527.83C316.162,526.881 312.843,518.606 308.849,509.439C300.087,489.329 284.728,442.869 288.873,449.014C291.288,452.594 362.631,428.553 427.225,402.395C453.234,391.862 532.014,356.789 549.611,347.909C553.857,345.767 558.057,344.431 558.944,344.94C559.832,345.45 560.131,345.393 559.609,344.815C558.799,343.917 596.768,324.306 600.558,323.665C601.291,323.54 602.191,323.079 602.558,322.639C604.065,320.831 629.226,307.963 629.245,308.99C629.256,309.604 629.706,309.467 630.245,308.686C630.784,307.905 636.625,304.353 643.225,300.792C704.45,267.762 771.378,227.286 813.804,197.63C821.823,192.025 828.918,187.604 829.57,187.805C830.222,188.007 830.475,187.707 830.13,187.139C829.786,186.57 832.065,186.636 832.969,185.801C835.673,183.305 854.969,211.723 867.388,235.439C871.773,243.813 872.704,243.396 863.225,250.97C847.512,263.526 822.144,281.601 797.225,297.998C785.125,305.96 770.125,315.899 763.891,320.085C710.446,355.976 602.892,414.089 522.558,450.482C455.231,480.983 385.297,508.266 335.225,523.565C326.425,526.254 318.575,528.701 317.78,529.004C316.986,529.306 316.285,528.778 316.223,527.83Z" style="fill:rgb(133,89,233);fill-rule:nonzero;"/>
        </g>
        <g id="path4" transform="matrix(1.18117,0,0,1.18117,-233.26,-344.297)">
            <path d="M675.333,1059.93C658.102,1058.16 628.338,1052.56 611.504,1047.9C552.869,1031.7 498.908,1001.3 447.357,955.412L438.457,947.49L430.228,949.813C373.408,965.857 341.297,971.29 304,971.169C274.88,971.075 265.139,969.312 249.158,961.245C231.58,952.372 216.896,932.982 213.445,914.088C209.167,890.665 214.593,868.923 232.35,838.343C248.157,811.12 283.353,771.909 293.729,769.963C307.856,767.313 316.854,778.118 319.539,800.958L320.357,807.916L311.07,817.625C275.213,855.108 261.73,878.508 265.582,896.567C267.162,903.977 274.077,912.086 282.297,916.169C288.299,919.15 290.015,919.327 312,919.232C344.187,919.093 369.521,914.924 417.747,901.83C491.904,881.696 569.332,852.468 670,806.607C698.506,793.621 765.016,759.758 800,740.42C974.686,643.857 1098.05,542.325 1113.98,482C1118.43,465.174 1113.08,453.534 1097.58,446.266C1089.37,442.42 1087.33,442.047 1071.83,441.559C1055.49,441.044 1045.27,441.954 1023.57,445.855C1008.07,448.641 1006,447.74 989,430.809C978.144,419.997 974.667,415.696 974.667,413.081C974.667,404.957 980.469,402.498 1013.33,396.699C1042.79,391.501 1058.08,390.229 1081.62,391.017C1099.85,391.628 1105.26,392.315 1115.33,395.294C1130.54,399.797 1140.07,405.215 1149.33,414.622C1182.88,448.698 1173.21,502.324 1122.52,563.333C1106.99,582.018 1079.43,609.246 1061.49,623.633L1058.31,626.181L1060.64,642.091C1063.71,663.055 1064.86,714.587 1062.71,735.642C1058.39,778.1 1045.54,822.355 1026.02,862C1007.94,898.706 989.389,925.139 962.035,953.155C903.403,1013.21 841.969,1044.11 753.395,1058.09C737.91,1060.53 691.798,1061.62 675.333,1059.93ZM753.833,1007.49C796.449,1001.4 842.411,983.694 874.55,960.975C906.373,938.48 929.822,916.085 949.819,889.089C967.274,865.525 971.909,857.968 982.791,835.333C992.974,814.152 999.741,794.983 1005.33,771.503C1012.83,739.967 1013.72,732.273 1013.86,697.782C1013.94,680.062 1013.61,665.176 1013.14,664.702C1012.67,664.227 1006.07,668.339 998.475,673.84C990.88,679.341 979.267,687.76 972.667,692.549C953.574,706.402 889.443,748 887.177,748C886.774,748 878.243,753.024 868.222,759.165C858.2,765.305 846.7,772.232 842.667,774.558C838.633,776.884 834.433,779.353 833.333,780.045C831.37,781.281 813.059,791.043 785.333,805.635C712.589,843.919 654.343,870.869 590,896.014C561.785,907.04 528.074,919.773 514.333,924.594C506.45,927.36 500,930.046 500,930.562C500,934.779 542.725,964.619 564.365,975.517C599.411,993.166 625.781,1001.5 667.333,1008.06C680.376,1010.12 688.509,1010.49 711.333,1010.08C726.733,1009.8 745.858,1008.63 753.833,1007.49ZM374.151,849.634C361.922,825.284 349.4,784.618 344.497,753.333C341.503,734.23 341.081,676.574 343.77,654.003C345.824,636.759 352.676,606.147 358.692,587.333C377.297,529.154 408.66,477.831 451.986,434.667C475.346,411.393 509.634,387.129 540.667,371.912C578.684,353.27 610.562,343.984 660,337.151C676.072,334.93 728.114,334.952 746,337.187C798.977,343.81 847.991,361.465 892.627,390.003C945.827,424.017 986.2,466.861 1019.04,524.157L1022.57,530.315L1007.67,542.824C990.801,556.99 982.723,563.215 982.152,562.494C981.937,562.222 979.971,558.7 977.782,554.667C968.699,537.928 965.831,533.358 956.152,520.194C950.568,512.601 944.716,504.469 943.146,502.122C936.893,492.775 914.011,468.964 902.35,459.671C884.936,445.791 873.686,437.333 872.64,437.333C872.148,437.333 869.865,435.983 867.567,434.333C865.269,432.683 862.369,430.733 861.123,430C812.241,401.23 772.863,389.505 711.365,385.407C683.183,383.529 651.399,387.096 615.333,396.184C570.757,407.416 517.659,439.346 481.519,476.651C435.474,524.183 406.062,583.51 395.251,650.667C391.805,672.073 391.084,723.55 393.969,742.184C398.579,771.957 407.621,802.417 420.631,832C424.017,839.7 426.911,846.549 427.061,847.22C427.311,848.342 394.343,858.546 384.33,860.445C380.013,861.264 379.968,861.217 374.151,849.634Z" style="fill:rgb(75,68,91);fill-rule:nonzero;stroke:black;stroke-width:0.85px;"/>
        </g>
        <g transform="matrix(1.18117,0,0,1.18117,-120.063,16.1342)">
            <circle cx="793.623" cy="507.514" r="33.585" style="fill:rgb(75,68,91);"/>
        </g>
        <g transform="matrix(2.31549,0,0,2.15803,-782.387,-128.392)">
            <ellipse cx="621.541" cy="156.312" rx="19.639" ry="20.77" style="fill:rgb(75,68,91);"/>
        </g>
        <g transform="matrix(2.62976,0,0,2.45094,-1029.15,390.464)">
            <ellipse cx="621.541" cy="156.312" rx="19.639" ry="20.77" style="fill:rgb(75,68,91);"/>
        </g>
        <g transform="matrix(1.32003,0,0,1.32003,-5.01457,-1537.57)">
            <g transform="matrix(672,0,0,672,947.303,1685.17)">
                <path d="M0.349,-0L0.22,-0L0.22,-0.605L0.016,-0.605L0.016,-0.714L0.553,-0.714L0.553,-0.605L0.349,-0.605L0.349,-0Z" style="fill:rgb(133,89,233);fill-rule:nonzero;"/>
            </g>
            <g transform="matrix(672,0,0,672,1269.39,1685.17)">
                <path d="M0.301,-0.552C0.35,-0.552 0.392,-0.543 0.427,-0.523C0.462,-0.504 0.49,-0.476 0.509,-0.439C0.527,-0.402 0.537,-0.358 0.537,-0.306L0.537,-0.241L0.18,-0.241C0.181,-0.193 0.195,-0.155 0.221,-0.128C0.247,-0.102 0.284,-0.088 0.332,-0.088C0.366,-0.088 0.397,-0.091 0.424,-0.098C0.451,-0.104 0.479,-0.114 0.508,-0.127L0.508,-0.027C0.481,-0.015 0.453,-0.005 0.425,0.001C0.396,0.007 0.362,0.01 0.321,0.01C0.268,0.01 0.221,-0 0.18,-0.02C0.14,-0.041 0.108,-0.072 0.085,-0.113C0.062,-0.154 0.05,-0.206 0.05,-0.267C0.05,-0.329 0.061,-0.381 0.081,-0.423C0.102,-0.466 0.132,-0.498 0.169,-0.52C0.207,-0.542 0.251,-0.552 0.301,-0.552ZM0.303,-0.458C0.268,-0.458 0.24,-0.447 0.22,-0.425C0.199,-0.403 0.186,-0.372 0.183,-0.33L0.414,-0.33C0.414,-0.355 0.41,-0.378 0.402,-0.397C0.394,-0.416 0.381,-0.431 0.365,-0.442C0.349,-0.453 0.328,-0.458 0.303,-0.458Z" style="fill:rgb(133,89,233);fill-rule:nonzero;"/>
            </g>
            <g transform="matrix(672,0,0,672,1648.75,1685.17)">
                <path d="M0.45,-0.156C0.45,-0.122 0.442,-0.092 0.425,-0.067C0.409,-0.042 0.384,-0.023 0.351,-0.01C0.318,0.003 0.277,0.01 0.229,0.01C0.191,0.01 0.157,0.007 0.129,0.002C0.1,-0.003 0.074,-0.012 0.049,-0.023L0.049,-0.131C0.075,-0.118 0.105,-0.107 0.137,-0.099C0.17,-0.091 0.2,-0.087 0.227,-0.087C0.263,-0.087 0.289,-0.092 0.305,-0.103C0.321,-0.113 0.329,-0.128 0.329,-0.146C0.329,-0.158 0.326,-0.168 0.319,-0.177C0.312,-0.186 0.299,-0.195 0.281,-0.204C0.262,-0.214 0.236,-0.225 0.203,-0.238C0.169,-0.251 0.141,-0.265 0.118,-0.278C0.095,-0.292 0.078,-0.309 0.066,-0.329C0.054,-0.348 0.048,-0.373 0.048,-0.402C0.048,-0.451 0.067,-0.488 0.106,-0.514C0.145,-0.54 0.196,-0.552 0.259,-0.552C0.293,-0.552 0.325,-0.549 0.355,-0.542C0.384,-0.535 0.414,-0.525 0.442,-0.512L0.404,-0.422C0.379,-0.433 0.354,-0.442 0.328,-0.448C0.302,-0.455 0.278,-0.459 0.256,-0.459C0.228,-0.459 0.206,-0.454 0.191,-0.446C0.176,-0.437 0.169,-0.425 0.169,-0.41C0.169,-0.398 0.173,-0.388 0.18,-0.38C0.188,-0.371 0.201,-0.363 0.219,-0.354C0.238,-0.346 0.264,-0.335 0.297,-0.322C0.33,-0.309 0.358,-0.296 0.381,-0.282C0.404,-0.268 0.421,-0.251 0.433,-0.231C0.444,-0.212 0.45,-0.187 0.45,-0.156Z" style="fill:rgb(133,89,233);fill-rule:nonzero;"/>
            </g>
            <g transform="matrix(672,0,0,672,1966.9,1685.17)">
                <path d="M0.291,-0.091C0.307,-0.091 0.322,-0.093 0.337,-0.096C0.352,-0.099 0.365,-0.102 0.378,-0.106L0.378,-0.012C0.365,-0.006 0.347,-0.001 0.326,0.004C0.305,0.008 0.282,0.01 0.259,0.01C0.228,0.01 0.2,0.005 0.175,-0.005C0.15,-0.016 0.13,-0.034 0.116,-0.059C0.101,-0.085 0.093,-0.12 0.093,-0.165L0.093,-0.447L0.02,-0.447L0.02,-0.502L0.1,-0.546L0.14,-0.661L0.219,-0.661L0.219,-0.542L0.373,-0.542L0.373,-0.447L0.219,-0.447L0.219,-0.166C0.219,-0.141 0.226,-0.122 0.239,-0.11C0.253,-0.097 0.27,-0.091 0.291,-0.091Z" style="fill:rgb(133,89,233);fill-rule:nonzero;"/>
            </g>
            <g transform="matrix(672,0,0,672,2226.62,1685.17)">
                <path d="M0.3,-0.714C0.393,-0.714 0.461,-0.695 0.504,-0.657C0.548,-0.62 0.57,-0.566 0.57,-0.498C0.57,-0.467 0.565,-0.438 0.555,-0.41C0.546,-0.382 0.53,-0.356 0.509,-0.334C0.487,-0.312 0.458,-0.295 0.422,-0.282C0.386,-0.269 0.342,-0.262 0.29,-0.262L0.219,-0.262L0.219,-0L0.089,-0L0.089,-0.714L0.3,-0.714ZM0.294,-0.607L0.219,-0.607L0.219,-0.37L0.278,-0.37C0.312,-0.37 0.341,-0.374 0.365,-0.382C0.389,-0.39 0.408,-0.403 0.42,-0.422C0.432,-0.44 0.439,-0.464 0.439,-0.493C0.439,-0.53 0.427,-0.559 0.404,-0.578C0.38,-0.597 0.344,-0.607 0.294,-0.607Z" style="fill:rgb(133,89,233);fill-rule:nonzero;"/>
            </g>
            <g transform="matrix(672,0,0,672,2626.63,1685.17)">
                <rect x="0.078" y="-0.76" width="0.127" height="0.76" style="fill:rgb(133,89,233);fill-rule:nonzero;"/>
            </g>
            <g transform="matrix(672,0,0,672,2803.16,1685.17)">
                <path d="M0.306,-0.552C0.373,-0.552 0.424,-0.536 0.458,-0.505C0.493,-0.474 0.51,-0.427 0.51,-0.364L0.51,-0L0.42,-0L0.396,-0.075L0.392,-0.075C0.376,-0.056 0.36,-0.039 0.344,-0.027C0.328,-0.014 0.309,-0.005 0.288,0.001C0.267,0.007 0.241,0.01 0.211,0.01C0.179,0.01 0.15,0.004 0.125,-0.008C0.099,-0.02 0.079,-0.038 0.064,-0.063C0.05,-0.088 0.042,-0.119 0.042,-0.157C0.042,-0.212 0.063,-0.254 0.105,-0.283C0.146,-0.312 0.209,-0.328 0.293,-0.331L0.384,-0.334L0.384,-0.357C0.384,-0.394 0.376,-0.42 0.359,-0.435C0.343,-0.449 0.32,-0.457 0.29,-0.457C0.264,-0.457 0.238,-0.452 0.213,-0.444C0.187,-0.436 0.162,-0.427 0.138,-0.416L0.1,-0.504C0.127,-0.519 0.158,-0.53 0.193,-0.539C0.228,-0.547 0.266,-0.552 0.306,-0.552ZM0.318,-0.254C0.264,-0.252 0.226,-0.243 0.204,-0.227C0.183,-0.211 0.172,-0.189 0.172,-0.16C0.172,-0.134 0.18,-0.116 0.195,-0.103C0.21,-0.091 0.23,-0.085 0.254,-0.085C0.291,-0.085 0.322,-0.096 0.347,-0.117C0.371,-0.138 0.384,-0.169 0.384,-0.21L0.384,-0.256L0.318,-0.254Z" style="fill:rgb(133,89,233);fill-rule:nonzero;"/>
            </g>
            <g transform="matrix(672,0,0,672,3182.55,1685.17)">
                <path d="M0.369,-0.552C0.431,-0.552 0.478,-0.537 0.512,-0.505C0.546,-0.474 0.563,-0.423 0.563,-0.353L0.563,-0L0.437,-0L0.437,-0.327C0.437,-0.368 0.429,-0.399 0.413,-0.419C0.396,-0.439 0.371,-0.45 0.337,-0.45C0.286,-0.45 0.252,-0.434 0.233,-0.402C0.214,-0.37 0.205,-0.324 0.205,-0.264L0.205,-0L0.078,-0L0.078,-0.542L0.176,-0.542L0.194,-0.469L0.2,-0.469C0.212,-0.488 0.227,-0.503 0.244,-0.515C0.261,-0.528 0.28,-0.537 0.302,-0.543C0.323,-0.549 0.345,-0.552 0.369,-0.552Z" style="fill:rgb(133,89,233);fill-rule:nonzero;"/>
            </g>
            <g transform="matrix(672,0,0,672,3597.68,1685.17)">
                <path d="M0.335,-0L0.035,-0L0.035,-0.073L0.121,-0.105L0.121,-0.608L0.035,-0.641L0.035,-0.714L0.335,-0.714L0.335,-0.641L0.249,-0.608L0.249,-0.105L0.335,-0.073L0.335,-0Z" style="fill:rgb(133,89,233);fill-rule:nonzero;"/>
            </g>
            <g transform="matrix(672,0,0,672,3832.98,1685.17)">
                <path d="M0.291,-0.091C0.307,-0.091 0.322,-0.093 0.337,-0.096C0.352,-0.099 0.365,-0.102 0.378,-0.106L0.378,-0.012C0.365,-0.006 0.347,-0.001 0.326,0.004C0.305,0.008 0.282,0.01 0.259,0.01C0.228,0.01 0.2,0.005 0.175,-0.005C0.15,-0.016 0.13,-0.034 0.116,-0.059C0.101,-0.085 0.093,-0.12 0.093,-0.165L0.093,-0.447L0.02,-0.447L0.02,-0.502L0.1,-0.546L0.14,-0.661L0.219,-0.661L0.219,-0.542L0.373,-0.542L0.373,-0.447L0.219,-0.447L0.219,-0.166C0.219,-0.141 0.226,-0.122 0.239,-0.11C0.253,-0.097 0.27,-0.091 0.291,-0.091Z" style="fill:rgb(133,89,233);fill-rule:nonzero;"/>
            </g>
        </g>
        <g transform="matrix(1,0,0,1,-4.97326,-714.633)">
            <g transform="matrix(240,0,0,240,1262.78,1632.06)">
                <path d="M0.323,-0L0.233,-0L0.233,-0.635L0.01,-0.635L0.01,-0.714L0.545,-0.714L0.545,-0.635L0.323,-0.635L0.323,-0Z" style="fill:rgb(148,148,148);fill-rule:nonzero;"/>
            </g>
            <g transform="matrix(240,0,0,240,1372.22,1632.06)">
                <path d="M0.292,-0.546C0.338,-0.546 0.378,-0.536 0.411,-0.516C0.444,-0.496 0.469,-0.468 0.487,-0.432C0.504,-0.395 0.513,-0.353 0.513,-0.304L0.513,-0.251L0.146,-0.251C0.147,-0.19 0.163,-0.144 0.193,-0.113C0.222,-0.081 0.264,-0.065 0.317,-0.065C0.351,-0.065 0.381,-0.068 0.408,-0.075C0.434,-0.081 0.461,-0.09 0.489,-0.102L0.489,-0.025C0.462,-0.013 0.435,-0.004 0.408,0.002C0.381,0.007 0.35,0.01 0.313,0.01C0.262,0.01 0.218,-0 0.179,-0.021C0.139,-0.042 0.109,-0.073 0.088,-0.114C0.066,-0.155 0.055,-0.205 0.055,-0.264C0.055,-0.323 0.065,-0.373 0.085,-0.415C0.104,-0.457 0.132,-0.489 0.168,-0.512C0.203,-0.535 0.245,-0.546 0.292,-0.546ZM0.291,-0.474C0.249,-0.474 0.216,-0.46 0.192,-0.434C0.167,-0.407 0.153,-0.369 0.148,-0.321L0.421,-0.321C0.421,-0.352 0.416,-0.378 0.407,-0.401C0.398,-0.424 0.384,-0.442 0.365,-0.455C0.345,-0.468 0.321,-0.474 0.291,-0.474Z" style="fill:rgb(148,148,148);fill-rule:nonzero;"/>
            </g>
            <g transform="matrix(240,0,0,240,1500.38,1632.06)">
                <path d="M0.434,-0.148C0.434,-0.113 0.425,-0.084 0.408,-0.061C0.391,-0.038 0.366,-0.02 0.334,-0.008C0.302,0.004 0.264,0.01 0.22,0.01C0.183,0.01 0.151,0.007 0.124,0.001C0.096,-0.005 0.073,-0.013 0.052,-0.024L0.052,-0.104C0.073,-0.093 0.099,-0.084 0.13,-0.075C0.16,-0.066 0.191,-0.061 0.222,-0.061C0.267,-0.061 0.299,-0.068 0.319,-0.083C0.339,-0.097 0.349,-0.116 0.349,-0.14C0.349,-0.153 0.345,-0.165 0.338,-0.176C0.331,-0.187 0.318,-0.197 0.299,-0.208C0.28,-0.219 0.252,-0.231 0.217,-0.244C0.182,-0.257 0.153,-0.271 0.128,-0.284C0.103,-0.297 0.084,-0.313 0.071,-0.332C0.058,-0.351 0.051,-0.375 0.051,-0.404C0.051,-0.449 0.07,-0.484 0.107,-0.509C0.143,-0.534 0.192,-0.546 0.252,-0.546C0.285,-0.546 0.315,-0.543 0.344,-0.537C0.372,-0.53 0.398,-0.521 0.423,-0.51L0.393,-0.44C0.37,-0.449 0.347,-0.457 0.322,-0.464C0.297,-0.471 0.272,-0.474 0.246,-0.474C0.21,-0.474 0.183,-0.468 0.164,-0.457C0.145,-0.445 0.135,-0.429 0.135,-0.409C0.135,-0.394 0.139,-0.382 0.148,-0.372C0.157,-0.361 0.171,-0.351 0.192,-0.342C0.212,-0.332 0.239,-0.32 0.273,-0.307C0.307,-0.294 0.336,-0.281 0.36,-0.268C0.384,-0.255 0.402,-0.239 0.415,-0.22C0.428,-0.201 0.434,-0.177 0.434,-0.148Z" style="fill:rgb(148,148,148);fill-rule:nonzero;"/>
            </g>
            <g transform="matrix(240,0,0,240,1608.14,1632.06)">
                <path d="M0.264,-0.062C0.277,-0.062 0.291,-0.063 0.305,-0.066C0.319,-0.068 0.33,-0.07 0.339,-0.073L0.339,-0.006C0.33,-0.001 0.316,0.003 0.299,0.006C0.282,0.009 0.265,0.01 0.249,0.01C0.221,0.01 0.195,0.005 0.172,-0.005C0.148,-0.014 0.129,-0.031 0.114,-0.055C0.099,-0.079 0.092,-0.113 0.092,-0.156L0.092,-0.468L0.016,-0.468L0.016,-0.51L0.093,-0.545L0.128,-0.659L0.18,-0.659L0.18,-0.536L0.335,-0.536L0.335,-0.468L0.18,-0.468L0.18,-0.158C0.18,-0.125 0.188,-0.101 0.204,-0.086C0.219,-0.07 0.239,-0.062 0.264,-0.062Z" style="fill:rgb(148,148,148);fill-rule:nonzero;"/>
            </g>
            <g transform="matrix(240,0,0,240,1742.78,1632.06)">
                <path d="M0.292,-0.546C0.338,-0.546 0.378,-0.536 0.411,-0.516C0.444,-0.496 0.469,-0.468 0.487,-0.432C0.504,-0.395 0.513,-0.353 0.513,-0.304L0.513,-0.251L0.146,-0.251C0.147,-0.19 0.163,-0.144 0.193,-0.113C0.222,-0.081 0.264,-0.065 0.317,-0.065C0.351,-0.065 0.381,-0.068 0.408,-0.075C0.434,-0.081 0.461,-0.09 0.489,-0.102L0.489,-0.025C0.462,-0.013 0.435,-0.004 0.408,0.002C0.381,0.007 0.35,0.01 0.313,0.01C0.262,0.01 0.218,-0 0.179,-0.021C0.139,-0.042 0.109,-0.073 0.088,-0.114C0.066,-0.155 0.055,-0.205 0.055,-0.264C0.055,-0.323 0.065,-0.373 0.085,-0.415C0.104,-0.457 0.132,-0.489 0.168,-0.512C0.203,-0.535 0.245,-0.546 0.292,-0.546ZM0.291,-0.474C0.249,-0.474 0.216,-0.46 0.192,-0.434C0.167,-0.407 0.153,-0.369 0.148,-0.321L0.421,-0.321C0.421,-0.352 0.416,-0.378 0.407,-0.401C0.398,-0.424 0.384,-0.442 0.365,-0.455C0.345,-0.468 0.321,-0.474 0.291,-0.474Z" style="fill:rgb(148,148,148);fill-rule:nonzero;"/>
            </g>
            <g transform="matrix(240,0,0,240,1866.14,1632.06)">
                <path d="M0.203,-0L0,-0.536L0.094,-0.536L0.208,-0.22C0.213,-0.205 0.219,-0.189 0.225,-0.171C0.231,-0.153 0.236,-0.136 0.241,-0.12C0.246,-0.103 0.249,-0.089 0.251,-0.078L0.255,-0.078C0.258,-0.089 0.262,-0.103 0.267,-0.12C0.272,-0.137 0.277,-0.154 0.284,-0.172C0.29,-0.19 0.295,-0.206 0.3,-0.22L0.414,-0.536L0.508,-0.536L0.304,-0L0.203,-0Z" style="fill:rgb(148,148,148);fill-rule:nonzero;"/>
            </g>
            <g transform="matrix(240,0,0,240,1980.86,1632.06)">
                <path d="M0.292,-0.546C0.338,-0.546 0.378,-0.536 0.411,-0.516C0.444,-0.496 0.469,-0.468 0.487,-0.432C0.504,-0.395 0.513,-0.353 0.513,-0.304L0.513,-0.251L0.146,-0.251C0.147,-0.19 0.163,-0.144 0.193,-0.113C0.222,-0.081 0.264,-0.065 0.317,-0.065C0.351,-0.065 0.381,-0.068 0.408,-0.075C0.434,-0.081 0.461,-0.09 0.489,-0.102L0.489,-0.025C0.462,-0.013 0.435,-0.004 0.408,0.002C0.381,0.007 0.35,0.01 0.313,0.01C0.262,0.01 0.218,-0 0.179,-0.021C0.139,-0.042 0.109,-0.073 0.088,-0.114C0.066,-0.155 0.055,-0.205 0.055,-0.264C0.055,-0.323 0.065,-0.373 0.085,-0.415C0.104,-0.457 0.132,-0.489 0.168,-0.512C0.203,-0.535 0.245,-0.546 0.292,-0.546ZM0.291,-0.474C0.249,-0.474 0.216,-0.46 0.192,-0.434C0.167,-0.407 0.153,-0.369 0.148,-0.321L0.421,-0.321C0.421,-0.352 0.416,-0.378 0.407,-0.401C0.398,-0.424 0.384,-0.442 0.365,-0.455C0.345,-0.468 0.321,-0.474 0.291,-0.474Z" style="fill:rgb(148,148,148);fill-rule:nonzero;"/>
            </g>
            <g transform="matrix(240,0,0,240,2109.02,1632.06)">
                <path d="M0.335,-0.546C0.345,-0.546 0.356,-0.546 0.368,-0.545C0.379,-0.544 0.389,-0.542 0.398,-0.54L0.387,-0.459C0.378,-0.461 0.369,-0.463 0.359,-0.464C0.348,-0.465 0.338,-0.466 0.329,-0.466C0.308,-0.466 0.289,-0.462 0.27,-0.453C0.251,-0.444 0.235,-0.432 0.22,-0.417C0.205,-0.401 0.194,-0.382 0.186,-0.36C0.177,-0.338 0.173,-0.313 0.173,-0.286L0.173,-0L0.085,-0L0.085,-0.536L0.157,-0.536L0.167,-0.438L0.171,-0.438C0.182,-0.458 0.196,-0.476 0.212,-0.493C0.228,-0.509 0.246,-0.522 0.267,-0.532C0.288,-0.541 0.31,-0.546 0.335,-0.546Z" style="fill:rgb(148,148,148);fill-rule:nonzero;"/>
            </g>
            <g transform="matrix(240,0,0,240,2200.94,1632.06)">
                <path d="M0.001,-0.536L0.095,-0.536L0.211,-0.231C0.218,-0.213 0.224,-0.196 0.23,-0.179C0.235,-0.162 0.24,-0.146 0.245,-0.131C0.25,-0.115 0.253,-0.1 0.256,-0.085L0.26,-0.085C0.264,-0.102 0.27,-0.124 0.279,-0.151C0.288,-0.178 0.297,-0.205 0.306,-0.232L0.415,-0.536L0.51,-0.536L0.279,0.074C0.266,0.107 0.252,0.136 0.235,0.162C0.218,0.187 0.197,0.206 0.173,0.22C0.148,0.233 0.119,0.24 0.084,0.24C0.068,0.24 0.054,0.239 0.042,0.238C0.03,0.236 0.02,0.234 0.011,0.232L0.011,0.162C0.018,0.163 0.027,0.165 0.038,0.166C0.048,0.167 0.059,0.168 0.07,0.168C0.091,0.168 0.109,0.164 0.124,0.157C0.138,0.149 0.151,0.138 0.162,0.124C0.173,0.109 0.182,0.092 0.189,0.073L0.217,0.002L0.001,-0.536Z" style="fill:rgb(148,148,148);fill-rule:nonzero;"/>
            </g>
            <g transform="matrix(240,0,0,240,2316.14,1632.06)">
                <path d="M0.264,-0.062C0.277,-0.062 0.291,-0.063 0.305,-0.066C0.319,-0.068 0.33,-0.07 0.339,-0.073L0.339,-0.006C0.33,-0.001 0.316,0.003 0.299,0.006C0.282,0.009 0.265,0.01 0.249,0.01C0.221,0.01 0.195,0.005 0.172,-0.005C0.148,-0.014 0.129,-0.031 0.114,-0.055C0.099,-0.079 0.092,-0.113 0.092,-0.156L0.092,-0.468L0.016,-0.468L0.016,-0.51L0.093,-0.545L0.128,-0.659L0.18,-0.659L0.18,-0.536L0.335,-0.536L0.335,-0.468L0.18,-0.468L0.18,-0.158C0.18,-0.125 0.188,-0.101 0.204,-0.086C0.219,-0.07 0.239,-0.062 0.264,-0.062Z" style="fill:rgb(148,148,148);fill-rule:nonzero;"/>
            </g>
            <g transform="matrix(240,0,0,240,2395.58,1632.06)">
                <path d="M0.173,-0.537C0.173,-0.524 0.173,-0.511 0.172,-0.498C0.171,-0.485 0.169,-0.473 0.168,-0.462L0.174,-0.462C0.185,-0.481 0.2,-0.496 0.217,-0.508C0.234,-0.52 0.254,-0.529 0.275,-0.536C0.296,-0.542 0.318,-0.545 0.341,-0.545C0.384,-0.545 0.421,-0.538 0.45,-0.525C0.478,-0.511 0.5,-0.49 0.515,-0.461C0.53,-0.432 0.537,-0.395 0.537,-0.349L0.537,-0L0.45,-0L0.45,-0.343C0.45,-0.386 0.44,-0.419 0.421,-0.44C0.402,-0.461 0.371,-0.472 0.33,-0.472C0.29,-0.472 0.259,-0.464 0.236,-0.45C0.213,-0.435 0.197,-0.413 0.188,-0.384C0.178,-0.355 0.173,-0.319 0.173,-0.277L0.173,-0L0.085,-0L0.085,-0.76L0.173,-0.76L0.173,-0.537Z" style="fill:rgb(148,148,148);fill-rule:nonzero;"/>
            </g>
            <g transform="matrix(240,0,0,240,2536.7,1632.06)">
                <path d="M0.173,-0.536L0.173,-0L0.085,-0L0.085,-0.536L0.173,-0.536ZM0.13,-0.737C0.143,-0.737 0.155,-0.732 0.166,-0.724C0.176,-0.715 0.181,-0.7 0.181,-0.681C0.181,-0.662 0.176,-0.648 0.166,-0.639C0.155,-0.63 0.143,-0.625 0.13,-0.625C0.115,-0.625 0.103,-0.63 0.093,-0.639C0.083,-0.648 0.078,-0.662 0.078,-0.681C0.078,-0.7 0.083,-0.715 0.093,-0.724C0.103,-0.732 0.115,-0.737 0.13,-0.737Z" style="fill:rgb(148,148,148);fill-rule:nonzero;"/>
            </g>
            <g transform="matrix(240,0,0,240,2591.42,1632.06)">
                <path d="M0.343,-0.546C0.407,-0.546 0.455,-0.531 0.488,-0.5C0.521,-0.468 0.537,-0.418 0.537,-0.349L0.537,-0L0.45,-0L0.45,-0.343C0.45,-0.386 0.44,-0.419 0.421,-0.44C0.402,-0.461 0.371,-0.472 0.33,-0.472C0.271,-0.472 0.23,-0.455 0.207,-0.422C0.184,-0.389 0.173,-0.341 0.173,-0.278L0.173,-0L0.085,-0L0.085,-0.536L0.156,-0.536L0.169,-0.463L0.174,-0.463C0.186,-0.482 0.201,-0.497 0.219,-0.51C0.236,-0.522 0.256,-0.531 0.277,-0.537C0.298,-0.543 0.32,-0.546 0.343,-0.546Z" style="fill:rgb(148,148,148);fill-rule:nonzero;"/>
            </g>
            <g transform="matrix(240,0,0,240,2732.54,1632.06)">
                <path d="M0.275,-0.546C0.31,-0.546 0.342,-0.539 0.371,-0.526C0.399,-0.513 0.423,-0.492 0.443,-0.465L0.448,-0.465L0.46,-0.536L0.53,-0.536L0.53,0.009C0.53,0.06 0.521,0.102 0.504,0.137C0.487,0.171 0.46,0.197 0.425,0.214C0.39,0.231 0.345,0.24 0.29,0.24C0.251,0.24 0.216,0.237 0.184,0.232C0.151,0.226 0.122,0.217 0.097,0.206L0.097,0.125C0.122,0.138 0.152,0.149 0.186,0.156C0.22,0.163 0.256,0.167 0.295,0.167C0.341,0.167 0.377,0.154 0.404,0.127C0.43,0.099 0.443,0.063 0.443,0.016L0.443,-0.005C0.443,-0.013 0.443,-0.025 0.444,-0.04C0.445,-0.055 0.445,-0.065 0.446,-0.071L0.442,-0.071C0.423,-0.044 0.4,-0.023 0.373,-0.01C0.345,0.003 0.313,0.01 0.276,0.01C0.207,0.01 0.153,-0.014 0.114,-0.063C0.075,-0.112 0.055,-0.18 0.055,-0.267C0.055,-0.352 0.075,-0.42 0.114,-0.471C0.153,-0.521 0.206,-0.546 0.275,-0.546ZM0.287,-0.472C0.257,-0.472 0.232,-0.464 0.211,-0.448C0.19,-0.432 0.173,-0.409 0.163,-0.378C0.152,-0.347 0.146,-0.31 0.146,-0.266C0.146,-0.2 0.158,-0.15 0.183,-0.115C0.207,-0.08 0.242,-0.062 0.289,-0.062C0.316,-0.062 0.34,-0.066 0.359,-0.073C0.378,-0.08 0.394,-0.091 0.407,-0.106C0.42,-0.121 0.429,-0.14 0.435,-0.163C0.441,-0.186 0.444,-0.214 0.444,-0.246L0.444,-0.267C0.444,-0.316 0.439,-0.355 0.428,-0.385C0.417,-0.415 0.399,-0.437 0.376,-0.451C0.353,-0.465 0.323,-0.472 0.287,-0.472Z" style="fill:rgb(148,148,148);fill-rule:nonzero;"/>
            </g>
            <g transform="matrix(240,0,0,240,2928.14,1632.06)">
                <path d="M0.533,-0.536L0.533,-0L0.461,-0L0.448,-0.071L0.444,-0.071C0.433,-0.052 0.418,-0.037 0.4,-0.025C0.382,-0.013 0.362,-0.004 0.341,0.002C0.32,0.007 0.297,0.01 0.274,0.01C0.231,0.01 0.196,0.003 0.167,-0.011C0.137,-0.024 0.116,-0.045 0.101,-0.074C0.086,-0.103 0.079,-0.14 0.079,-0.185L0.079,-0.536L0.168,-0.536L0.168,-0.191C0.168,-0.148 0.178,-0.116 0.197,-0.095C0.216,-0.074 0.246,-0.063 0.287,-0.063C0.327,-0.063 0.359,-0.071 0.382,-0.086C0.405,-0.1 0.421,-0.123 0.431,-0.152C0.44,-0.181 0.445,-0.216 0.445,-0.257L0.445,-0.536L0.533,-0.536Z" style="fill:rgb(148,148,148);fill-rule:nonzero;"/>
            </g>
            <g transform="matrix(240,0,0,240,3069.26,1632.06)">
                <path d="M0.343,-0.546C0.407,-0.546 0.455,-0.531 0.488,-0.5C0.521,-0.468 0.537,-0.418 0.537,-0.349L0.537,-0L0.45,-0L0.45,-0.343C0.45,-0.386 0.44,-0.419 0.421,-0.44C0.402,-0.461 0.371,-0.472 0.33,-0.472C0.271,-0.472 0.23,-0.455 0.207,-0.422C0.184,-0.389 0.173,-0.341 0.173,-0.278L0.173,-0L0.085,-0L0.085,-0.536L0.156,-0.536L0.169,-0.463L0.174,-0.463C0.186,-0.482 0.201,-0.497 0.219,-0.51C0.236,-0.522 0.256,-0.531 0.277,-0.537C0.298,-0.543 0.32,-0.546 0.343,-0.546Z" style="fill:rgb(148,148,148);fill-rule:nonzero;"/>
            </g>
            <g transform="matrix(240,0,0,240,3210.38,1632.06)">
                <path d="M0.275,0.01C0.208,0.01 0.155,-0.013 0.115,-0.06C0.075,-0.106 0.055,-0.175 0.055,-0.267C0.055,-0.359 0.075,-0.429 0.116,-0.476C0.156,-0.523 0.209,-0.546 0.276,-0.546C0.304,-0.546 0.328,-0.543 0.349,-0.536C0.37,-0.529 0.388,-0.519 0.403,-0.507C0.418,-0.495 0.431,-0.482 0.442,-0.467L0.448,-0.467C0.447,-0.476 0.446,-0.489 0.445,-0.506C0.443,-0.523 0.442,-0.536 0.442,-0.546L0.442,-0.76L0.53,-0.76L0.53,-0L0.459,-0L0.446,-0.072L0.442,-0.072C0.431,-0.057 0.418,-0.043 0.403,-0.031C0.388,-0.018 0.37,-0.008 0.349,-0.001C0.328,0.006 0.303,0.01 0.275,0.01ZM0.289,-0.063C0.346,-0.063 0.386,-0.079 0.409,-0.11C0.432,-0.14 0.443,-0.187 0.443,-0.25L0.443,-0.266C0.443,-0.333 0.432,-0.384 0.41,-0.42C0.388,-0.455 0.347,-0.473 0.288,-0.473C0.241,-0.473 0.205,-0.454 0.182,-0.417C0.158,-0.379 0.146,-0.328 0.146,-0.265C0.146,-0.201 0.158,-0.151 0.182,-0.116C0.205,-0.081 0.241,-0.063 0.289,-0.063Z" style="fill:rgb(148,148,148);fill-rule:nonzero;"/>
            </g>
            <g transform="matrix(240,0,0,240,3350.78,1632.06)">
                <path d="M0.292,-0.546C0.338,-0.546 0.378,-0.536 0.411,-0.516C0.444,-0.496 0.469,-0.468 0.487,-0.432C0.504,-0.395 0.513,-0.353 0.513,-0.304L0.513,-0.251L0.146,-0.251C0.147,-0.19 0.163,-0.144 0.193,-0.113C0.222,-0.081 0.264,-0.065 0.317,-0.065C0.351,-0.065 0.381,-0.068 0.408,-0.075C0.434,-0.081 0.461,-0.09 0.489,-0.102L0.489,-0.025C0.462,-0.013 0.435,-0.004 0.408,0.002C0.381,0.007 0.35,0.01 0.313,0.01C0.262,0.01 0.218,-0 0.179,-0.021C0.139,-0.042 0.109,-0.073 0.088,-0.114C0.066,-0.155 0.055,-0.205 0.055,-0.264C0.055,-0.323 0.065,-0.373 0.085,-0.415C0.104,-0.457 0.132,-0.489 0.168,-0.512C0.203,-0.535 0.245,-0.546 0.292,-0.546ZM0.291,-0.474C0.249,-0.474 0.216,-0.46 0.192,-0.434C0.167,-0.407 0.153,-0.369 0.148,-0.321L0.421,-0.321C0.421,-0.352 0.416,-0.378 0.407,-0.401C0.398,-0.424 0.384,-0.442 0.365,-0.455C0.345,-0.468 0.321,-0.474 0.291,-0.474Z" style="fill:rgb(148,148,148);fill-rule:nonzero;"/>
            </g>
            <g transform="matrix(240,0,0,240,3478.94,1632.06)">
                <path d="M0.335,-0.546C0.345,-0.546 0.356,-0.546 0.368,-0.545C0.379,-0.544 0.389,-0.542 0.398,-0.54L0.387,-0.459C0.378,-0.461 0.369,-0.463 0.359,-0.464C0.348,-0.465 0.338,-0.466 0.329,-0.466C0.308,-0.466 0.289,-0.462 0.27,-0.453C0.251,-0.444 0.235,-0.432 0.22,-0.417C0.205,-0.401 0.194,-0.382 0.186,-0.36C0.177,-0.338 0.173,-0.313 0.173,-0.286L0.173,-0L0.085,-0L0.085,-0.536L0.157,-0.536L0.167,-0.438L0.171,-0.438C0.182,-0.458 0.196,-0.476 0.212,-0.493C0.228,-0.509 0.246,-0.522 0.267,-0.532C0.288,-0.541 0.31,-0.546 0.335,-0.546Z" style="fill:rgb(148,148,148);fill-rule:nonzero;"/>
            </g>
            <g transform="matrix(240,0,0,240,3626.06,1632.06)">
                <path d="M0.264,-0.062C0.277,-0.062 0.291,-0.063 0.305,-0.066C0.319,-0.068 0.33,-0.07 0.339,-0.073L0.339,-0.006C0.33,-0.001 0.316,0.003 0.299,0.006C0.282,0.009 0.265,0.01 0.249,0.01C0.221,0.01 0.195,0.005 0.172,-0.005C0.148,-0.014 0.129,-0.031 0.114,-0.055C0.099,-0.079 0.092,-0.113 0.092,-0.156L0.092,-0.468L0.016,-0.468L0.016,-0.51L0.093,-0.545L0.128,-0.659L0.18,-0.659L0.18,-0.536L0.335,-0.536L0.335,-0.468L0.18,-0.468L0.18,-0.158C0.18,-0.125 0.188,-0.101 0.204,-0.086C0.219,-0.07 0.239,-0.062 0.264,-0.062Z" style="fill:rgb(148,148,148);fill-rule:nonzero;"/>
            </g>
            <g transform="matrix(240,0,0,240,3705.5,1632.06)">
                <path d="M0.173,-0.537C0.173,-0.524 0.173,-0.511 0.172,-0.498C0.171,-0.485 0.169,-0.473 0.168,-0.462L0.174,-0.462C0.185,-0.481 0.2,-0.496 0.217,-0.508C0.234,-0.52 0.254,-0.529 0.275,-0.536C0.296,-0.542 0.318,-0.545 0.341,-0.545C0.384,-0.545 0.421,-0.538 0.45,-0.525C0.478,-0.511 0.5,-0.49 0.515,-0.461C0.53,-0.432 0.537,-0.395 0.537,-0.349L0.537,-0L0.45,-0L0.45,-0.343C0.45,-0.386 0.44,-0.419 0.421,-0.44C0.402,-0.461 0.371,-0.472 0.33,-0.472C0.29,-0.472 0.259,-0.464 0.236,-0.45C0.213,-0.435 0.197,-0.413 0.188,-0.384C0.178,-0.355 0.173,-0.319 0.173,-0.277L0.173,-0L0.085,-0L0.085,-0.76L0.173,-0.76L0.173,-0.537Z" style="fill:rgb(148,148,148);fill-rule:nonzero;"/>
            </g>
            <g transform="matrix(240,0,0,240,3846.62,1632.06)">
                <path d="M0.292,-0.546C0.338,-0.546 0.378,-0.536 0.411,-0.516C0.444,-0.496 0.469,-0.468 0.487,-0.432C0.504,-0.395 0.513,-0.353 0.513,-0.304L0.513,-0.251L0.146,-0.251C0.147,-0.19 0.163,-0.144 0.193,-0.113C0.222,-0.081 0.264,-0.065 0.317,-0.065C0.351,-0.065 0.381,-0.068 0.408,-0.075C0.434,-0.081 0.461,-0.09 0.489,-0.102L0.489,-0.025C0.462,-0.013 0.435,-0.004 0.408,0.002C0.381,0.007 0.35,0.01 0.313,0.01C0.262,0.01 0.218,-0 0.179,-0.021C0.139,-0.042 0.109,-0.073 0.088,-0.114C0.066,-0.155 0.055,-0.205 0.055,-0.264C0.055,-0.323 0.065,-0.373 0.085,-0.415C0.104,-0.457 0.132,-0.489 0.168,-0.512C0.203,-0.535 0.245,-0.546 0.292,-0.546ZM0.291,-0.474C0.249,-0.474 0.216,-0.46 0.192,-0.434C0.167,-0.407 0.153,-0.369 0.148,-0.321L0.421,-0.321C0.421,-0.352 0.416,-0.378 0.407,-0.401C0.398,-0.424 0.384,-0.442 0.365,-0.455C0.345,-0.468 0.321,-0.474 0.291,-0.474Z" style="fill:rgb(148,148,148);fill-rule:nonzero;"/>
            </g>
            <g transform="matrix(240,0,0,240,4029.98,1632.06)">
                <path d="M0.434,-0.148C0.434,-0.113 0.425,-0.084 0.408,-0.061C0.391,-0.038 0.366,-0.02 0.334,-0.008C0.302,0.004 0.264,0.01 0.22,0.01C0.183,0.01 0.151,0.007 0.124,0.001C0.096,-0.005 0.073,-0.013 0.052,-0.024L0.052,-0.104C0.073,-0.093 0.099,-0.084 0.13,-0.075C0.16,-0.066 0.191,-0.061 0.222,-0.061C0.267,-0.061 0.299,-0.068 0.319,-0.083C0.339,-0.097 0.349,-0.116 0.349,-0.14C0.349,-0.153 0.345,-0.165 0.338,-0.176C0.331,-0.187 0.318,-0.197 0.299,-0.208C0.28,-0.219 0.252,-0.231 0.217,-0.244C0.182,-0.257 0.153,-0.271 0.128,-0.284C0.103,-0.297 0.084,-0.313 0.071,-0.332C0.058,-0.351 0.051,-0.375 0.051,-0.404C0.051,-0.449 0.07,-0.484 0.107,-0.509C0.143,-0.534 0.192,-0.546 0.252,-0.546C0.285,-0.546 0.315,-0.543 0.344,-0.537C0.372,-0.53 0.398,-0.521 0.423,-0.51L0.393,-0.44C0.37,-0.449 0.347,-0.457 0.322,-0.464C0.297,-0.471 0.272,-0.474 0.246,-0.474C0.21,-0.474 0.183,-0.468 0.164,-0.457C0.145,-0.445 0.135,-0.429 0.135,-0.409C0.135,-0.394 0.139,-0.382 0.148,-0.372C0.157,-0.361 0.171,-0.351 0.192,-0.342C0.212,-0.332 0.239,-0.32 0.273,-0.307C0.307,-0.294 0.336,-0.281 0.36,-0.268C0.384,-0.255 0.402,-0.239 0.415,-0.22C0.428,-0.201 0.434,-0.177 0.434,-0.148Z" style="fill:rgb(148,148,148);fill-rule:nonzero;"/>
            </g>
            <g transform="matrix(240,0,0,240,4137.74,1632.06)">
                <path d="M0.533,-0.536L0.533,-0L0.461,-0L0.448,-0.071L0.444,-0.071C0.433,-0.052 0.418,-0.037 0.4,-0.025C0.382,-0.013 0.362,-0.004 0.341,0.002C0.32,0.007 0.297,0.01 0.274,0.01C0.231,0.01 0.196,0.003 0.167,-0.011C0.137,-0.024 0.116,-0.045 0.101,-0.074C0.086,-0.103 0.079,-0.14 0.079,-0.185L0.079,-0.536L0.168,-0.536L0.168,-0.191C0.168,-0.148 0.178,-0.116 0.197,-0.095C0.216,-0.074 0.246,-0.063 0.287,-0.063C0.327,-0.063 0.359,-0.071 0.382,-0.086C0.405,-0.1 0.421,-0.123 0.431,-0.152C0.44,-0.181 0.445,-0.216 0.445,-0.257L0.445,-0.536L0.533,-0.536Z" style="fill:rgb(148,148,148);fill-rule:nonzero;"/>
            </g>
            <g transform="matrix(240,0,0,240,4278.86,1632.06)">
                <path d="M0.343,-0.546C0.407,-0.546 0.455,-0.531 0.488,-0.5C0.521,-0.468 0.537,-0.418 0.537,-0.349L0.537,-0L0.45,-0L0.45,-0.343C0.45,-0.386 0.44,-0.419 0.421,-0.44C0.402,-0.461 0.371,-0.472 0.33,-0.472C0.271,-0.472 0.23,-0.455 0.207,-0.422C0.184,-0.389 0.173,-0.341 0.173,-0.278L0.173,-0L0.085,-0L0.085,-0.536L0.156,-0.536L0.169,-0.463L0.174,-0.463C0.186,-0.482 0.201,-0.497 0.219,-0.51C0.236,-0.522 0.256,-0.531 0.277,-0.537C0.298,-0.543 0.32,-0.546 0.343,-0.546Z" style="fill:rgb(148,148,148);fill-rule:nonzero;"/>
            </g>
        </g>
    </g>
</svg>
